<?xml version="1.0" encoding="UTF-8" standalone="no"?>
<!DOCTYPE svg PUBLIC "-//W3C//DTD SVG 1.0//EN" "http://www.w3.org/TR/2001/PR-SVG-20010719/DTD/svg10.dtd">
<svg width="58cm" height="49cm" viewBox="419 59 1142 962" xmlns="http://www.w3.org/2000/svg" xmlns:xlink="http://www.w3.org/1999/xlink">
  <g id="Fons"/>
  <g id="Fons"/>
  <g id="Fons"/>
  <g id="Fons">
    <g>
      <rect style="fill: #ffffff; fill-opacity: 1; stroke-opacity: 1; stroke-width: 2; stroke: #000000" x="580" y="60" width="54.4" height="36"/>
      <text font-size="12.8" style="fill: #000000; fill-opacity: 1; stroke: none;text-anchor:middle;font-family:sans-serif;font-style:normal;font-weight:normal" x="607.2" y="83.7">
        <tspan x="607.2" y="83.7">Client</tspan>
      </text>
      <line style="fill: none; stroke-opacity: 1; stroke-width: 1; stroke: #000000" x1="590" y1="87.5" x2="624.4" y2="87.5"/>
    </g>
    <g>
      <rect style="fill: #ffffff; fill-opacity: 1; stroke-opacity: 1; stroke-width: 2; stroke: #000000" x="780" y="60" width="84.05" height="36"/>
      <text font-size="12.8" style="fill: #000000; fill-opacity: 1; stroke: none;text-anchor:middle;font-family:sans-serif;font-style:normal;font-weight:normal" x="822.025" y="83.7">
        <tspan x="822.025" y="83.7">Subscriber</tspan>
      </text>
      <line style="fill: none; stroke-opacity: 1; stroke-width: 1; stroke: #000000" x1="790" y1="87.5" x2="854.05" y2="87.5"/>
    </g>
    <g>
      <rect style="fill: #ffffff; fill-opacity: 1; stroke-opacity: 1; stroke-width: 2; stroke: #000000" x="1080" y="60" width="60.45" height="36"/>
      <text font-size="12.8" style="fill: #000000; fill-opacity: 1; stroke: none;text-anchor:middle;font-family:sans-serif;font-style:normal;font-weight:normal" x="1110.22" y="83.7">
        <tspan x="1110.22" y="83.7">Broker</tspan>
      </text>
      <line style="fill: none; stroke-opacity: 1; stroke-width: 1; stroke: #000000" x1="1090" y1="87.5" x2="1130.45" y2="87.5"/>
    </g>
    <g>
      <rect style="fill: #ffffff; fill-opacity: 1; stroke-opacity: 1; stroke-width: 2; stroke: #000000" x="1380" y="60" width="76.65" height="36"/>
      <text font-size="12.8" style="fill: #000000; fill-opacity: 1; stroke: none;text-anchor:middle;font-family:sans-serif;font-style:normal;font-weight:normal" x="1418.33" y="83.7">
        <tspan x="1418.33" y="83.7">Publisher</tspan>
      </text>
      <line style="fill: none; stroke-opacity: 1; stroke-width: 1; stroke: #000000" x1="1390" y1="87.5" x2="1446.65" y2="87.5"/>
    </g>
    <g>
      <line style="fill: none; stroke-opacity: 1; stroke-width: 1; stroke-dasharray: 8; stroke: #000000" x1="1418.33" y1="96" x2="1418.33" y2="120"/>
      <line style="fill: none; stroke-opacity: 1; stroke-width: 1; stroke-dasharray: 8; stroke: #000000" x1="1418.33" y1="200" x2="1418.33" y2="218"/>
      <rect style="fill: #ffffff; fill-opacity: 1; stroke-opacity: 1; stroke-width: 2; stroke: #000000" x="1411.33" y="120" width="14" height="80"/>
    </g>
    <g>
      <line style="fill: none; stroke-opacity: 1; stroke-width: 1; stroke-dasharray: 8; stroke: #000000" x1="1110.22" y1="96" x2="1110.22" y2="140"/>
      <line style="fill: none; stroke-opacity: 1; stroke-width: 1; stroke-dasharray: 8; stroke: #000000" x1="1110.22" y1="180" x2="1110.22" y2="222"/>
      <rect style="fill: #ffffff; fill-opacity: 1; stroke-opacity: 1; stroke-width: 2; stroke: #000000" x="1103.22" y="140" width="14" height="40"/>
    </g>
    <g>
      <line style="fill: none; stroke-opacity: 1; stroke-width: 2; stroke: #000000" x1="1134.22" y1="140" x2="1411.33" y2="140"/>
      <polygon style="fill: #000000; fill-opacity: 1; stroke-opacity: 1; stroke-width: 2; stroke: #000000" fill-rule="evenodd" points="1134.22,135 1118.22,140 1134.22,145 "/>
      <text font-size="12.8" style="fill: #000000; fill-opacity: 1; stroke: none;text-anchor:middle;font-family:sans-serif;font-style:normal;font-weight:normal" x="1264.28" y="150">Publish root "foo" at "URL1"</text>
    </g>
    <g>
      <line style="fill: none; stroke-opacity: 1; stroke-width: 1; stroke-dasharray: 8; stroke: #000000" x1="822.026" y1="96" x2="822.026" y2="200"/>
      <line style="fill: none; stroke-opacity: 1; stroke-width: 1; stroke-dasharray: 8; stroke: #000000" x1="822.026" y1="340" x2="822.026" y2="360"/>
      <rect style="fill: #ffffff; fill-opacity: 1; stroke-opacity: 1; stroke-width: 2; stroke: #000000" x="815.026" y="200" width="14" height="140"/>
    </g>
    <g>
      <line style="fill: none; stroke-opacity: 1; stroke-width: 1; stroke-dasharray: 8; stroke: #000000" x1="607.2" y1="96" x2="607.2" y2="180"/>
      <line style="fill: none; stroke-opacity: 1; stroke-width: 1; stroke-dasharray: 8; stroke: #000000" x1="607.2" y1="360" x2="607.2" y2="380"/>
      <rect style="fill: #ffffff; fill-opacity: 1; stroke-opacity: 1; stroke-width: 2; stroke: #000000" x="600.2" y="180" width="14" height="180"/>
    </g>
    <g>
      <line style="fill: none; stroke-opacity: 1; stroke-width: 2; stroke: #000000" x1="583.2" y1="180" x2="420" y2="180"/>
      <polygon style="fill: #000000; fill-opacity: 1; stroke-opacity: 1; stroke-width: 2; stroke: #000000" fill-rule="evenodd" points="583.2,185 599.2,180 583.2,175 "/>
      <text font-size="12.8" style="fill: #000000; fill-opacity: 1; stroke: none;text-anchor:middle;font-family:sans-serif;font-style:normal;font-weight:normal" x="510.1" y="190">Subscribe "foo"</text>
    </g>
    <g>
      <line style="fill: none; stroke-opacity: 1; stroke-width: 2; stroke: #000000" x1="798.024" y1="200" x2="614.2" y2="200"/>
      <polygon style="fill: #000000; fill-opacity: 1; stroke-opacity: 1; stroke-width: 2; stroke: #000000" fill-rule="evenodd" points="798.024,205 814.024,200 798.024,195 "/>
      <text font-size="12.8" style="fill: #000000; fill-opacity: 1; stroke: none;text-anchor:middle;font-family:sans-serif;font-style:normal;font-weight:normal" x="714.612" y="210">Subscribe "foo"</text>
    </g>
    <g>
      <line style="fill: none; stroke-opacity: 1; stroke-width: 2; stroke: #000000" x1="1086.22" y1="220" x2="829.026" y2="220"/>
      <polygon style="fill: #000000; fill-opacity: 1; stroke-opacity: 1; stroke-width: 2; stroke: #000000" fill-rule="evenodd" points="1086.22,225 1102.22,220 1086.22,215 "/>
      <text font-size="12.8" style="fill: #000000; fill-opacity: 1; stroke: none;text-anchor:middle;font-family:sans-serif;font-style:normal;font-weight:normal" x="966.124" y="230">Subscribe "foo"</text>
    </g>
    <g>
      <line style="fill: none; stroke-opacity: 1; stroke-width: 1; stroke-dasharray: 8; stroke: #000000" x1="1110.22" y1="180" x2="1110.22" y2="220"/>
      <line style="fill: none; stroke-opacity: 1; stroke-width: 1; stroke-dasharray: 8; stroke: #000000" x1="1110.22" y1="260" x2="1110.22" y2="260"/>
      <rect style="fill: #ffffff; fill-opacity: 1; stroke-opacity: 1; stroke-width: 2; stroke: #000000" x="1103.22" y="220" width="14" height="40"/>
    </g>
    <g>
      <line style="fill: none; stroke-opacity: 1; stroke-width: 2; stroke-dasharray: 8; stroke: #000000" x1="1394.33" y1="180" x2="1117.22" y2="180"/>
      <polygon style="fill: #000000; fill-opacity: 1; stroke-opacity: 1; stroke-width: 2; stroke: #000000" fill-rule="evenodd" points="1394.33,185 1410.33,180 1394.33,175 "/>
      <text font-size="12.8" style="fill: #000000; fill-opacity: 1; stroke: none;text-anchor:middle;font-family:sans-serif;font-style:normal;font-weight:normal" x="1264.28" y="190">Ok</text>
    </g>
    <g>
      <line style="fill: none; stroke-opacity: 1; stroke-width: 2; stroke-dasharray: 8; stroke: #000000" x1="846.026" y1="260" x2="1103.22" y2="260"/>
      <polygon style="fill: #000000; fill-opacity: 1; stroke-opacity: 1; stroke-width: 2; stroke: #000000" fill-rule="evenodd" points="846.026,255 830.026,260 846.026,265 "/>
      <text font-size="12.8" style="fill: #000000; fill-opacity: 1; stroke: none;text-anchor:middle;font-family:sans-serif;font-style:normal;font-weight:normal" x="966.124" y="270">"URL1"</text>
    </g>
    <g>
      <line style="fill: none; stroke-opacity: 1; stroke-width: 2; stroke-dasharray: 8; stroke: #000000" x1="631.2" y1="340" x2="815.024" y2="340"/>
      <polygon style="fill: #000000; fill-opacity: 1; stroke-opacity: 1; stroke-width: 2; stroke: #000000" fill-rule="evenodd" points="631.2,335 615.2,340 631.2,345 "/>
      <text font-size="12.8" style="fill: #000000; fill-opacity: 1; stroke: none;text-anchor:middle;font-family:sans-serif;font-style:normal;font-weight:normal" x="714.612" y="350">Ok</text>
    </g>
    <g>
      <line style="fill: none; stroke-opacity: 1; stroke-width: 1; stroke-dasharray: 8; stroke: #000000" x1="607.2" y1="360" x2="607.2" y2="400"/>
      <line style="fill: none; stroke-opacity: 1; stroke-width: 1; stroke-dasharray: 8; stroke: #000000" x1="607.2" y1="520" x2="607.2" y2="580"/>
      <rect style="fill: #ffffff; fill-opacity: 1; stroke-opacity: 1; stroke-width: 2; stroke: #000000" x="600.2" y="400" width="14" height="120"/>
    </g>
    <g>
      <line style="fill: none; stroke-opacity: 1; stroke-width: 2; stroke: #000000" x1="583.2" y1="400" x2="420" y2="400"/>
      <polygon style="fill: #000000; fill-opacity: 1; stroke-opacity: 1; stroke-width: 2; stroke: #000000" fill-rule="evenodd" points="583.2,405 599.2,400 583.2,395 "/>
      <text font-size="12.8" style="fill: #000000; fill-opacity: 1; stroke: none;text-anchor:middle;font-family:sans-serif;font-style:normal;font-weight:normal" x="510.1" y="410">Show "foo/bar.b2nd"</text>
    </g>
    <g>
      <line style="fill: none; stroke-opacity: 1; stroke-width: 1; stroke-dasharray: 8; stroke: #000000" x1="822.026" y1="340" x2="822.026" y2="420"/>
      <line style="fill: none; stroke-opacity: 1; stroke-width: 1; stroke-dasharray: 8; stroke: #000000" x1="822.026" y1="500" x2="822.026" y2="520"/>
      <rect style="fill: #ffffff; fill-opacity: 1; stroke-opacity: 1; stroke-width: 2; stroke: #000000" x="815.026" y="420" width="14" height="80"/>
    </g>
    <g>
      <line style="fill: none; stroke-opacity: 1; stroke-width: 2; stroke: #000000" x1="798.024" y1="420" x2="614.2" y2="420"/>
      <polygon style="fill: #000000; fill-opacity: 1; stroke-opacity: 1; stroke-width: 2; stroke: #000000" fill-rule="evenodd" points="798.024,425 814.024,420 798.024,415 "/>
      <text font-size="12.8" style="fill: #000000; fill-opacity: 1; stroke: none;text-anchor:middle;font-family:sans-serif;font-style:normal;font-weight:normal" x="714.612" y="430">Get "foo/bar.b2nd"</text>
    </g>
    <g>
      <line style="fill: none; stroke-opacity: 1; stroke-width: 2; stroke: #000000" x1="1394.33" y1="440" x2="829.026" y2="440"/>
      <polygon style="fill: #000000; fill-opacity: 1; stroke-opacity: 1; stroke-width: 2; stroke: #000000" fill-rule="evenodd" points="1394.33,445 1410.33,440 1394.33,435 "/>
      <text font-size="12.8" style="fill: #000000; fill-opacity: 1; stroke: none;text-anchor:middle;font-family:sans-serif;font-style:normal;font-weight:normal" x="1120.17" y="450">Get "foo/bar.b2nd"</text>
    </g>
    <g>
      <line style="fill: none; stroke-opacity: 1; stroke-width: 1; stroke-dasharray: 8; stroke: #000000" x1="1418.33" y1="320" x2="1418.33" y2="440"/>
      <line style="fill: none; stroke-opacity: 1; stroke-width: 1; stroke-dasharray: 8; stroke: #000000" x1="1418.33" y1="480" x2="1418.33" y2="520"/>
      <rect style="fill: #ffffff; fill-opacity: 1; stroke-opacity: 1; stroke-width: 2; stroke: #000000" x="1411.33" y="440" width="14" height="40"/>
    </g>
    <g>
      <line style="fill: none; stroke-opacity: 1; stroke-width: 2; stroke-dasharray: 8; stroke: #000000" x1="846.026" y1="480" x2="1411.33" y2="480"/>
      <polygon style="fill: #000000; fill-opacity: 1; stroke-opacity: 1; stroke-width: 2; stroke: #000000" fill-rule="evenodd" points="846.026,475 830.026,480 846.026,485 "/>
      <text font-size="12.8" style="fill: #000000; fill-opacity: 1; stroke: none;text-anchor:middle;font-family:sans-serif;font-style:normal;font-weight:normal" x="1120.17" y="490">Data</text>
    </g>
    <g>
      <line style="fill: none; stroke-opacity: 1; stroke-width: 2; stroke-dasharray: 8; stroke: #000000" x1="631.2" y1="500" x2="815.024" y2="500"/>
      <polygon style="fill: #000000; fill-opacity: 1; stroke-opacity: 1; stroke-width: 2; stroke: #000000" fill-rule="evenodd" points="631.2,495 615.2,500 631.2,505 "/>
      <text font-size="12.8" style="fill: #000000; fill-opacity: 1; stroke: none;text-anchor:middle;font-family:sans-serif;font-style:normal;font-weight:normal" x="714.612" y="510">Data</text>
    </g>
    <g>
      <line style="fill: none; stroke-opacity: 1; stroke-width: 2; stroke-dasharray: 8; stroke: #000000" x1="437" y1="520" x2="600.2" y2="520"/>
      <polygon style="fill: #000000; fill-opacity: 1; stroke-opacity: 1; stroke-width: 2; stroke: #000000" fill-rule="evenodd" points="437,515 421,520 437,525 "/>
      <text font-size="12.8" style="fill: #000000; fill-opacity: 1; stroke: none;text-anchor:middle;font-family:sans-serif;font-style:normal;font-weight:normal" x="510.1" y="530">Formatted data</text>
    </g>
    <g>
      <line style="fill: none; stroke-opacity: 1; stroke-width: 1; stroke-dasharray: 8; stroke: #000000" x1="607.2" y1="520" x2="607.2" y2="560"/>
      <line style="fill: none; stroke-opacity: 1; stroke-width: 1; stroke-dasharray: 8; stroke: #000000" x1="607.2" y1="680" x2="607.2" y2="700"/>
      <rect style="fill: #ffffff; fill-opacity: 1; stroke-opacity: 1; stroke-width: 2; stroke: #000000" x="600.2" y="560" width="14" height="120"/>
    </g>
    <g>
      <line style="fill: none; stroke-opacity: 1; stroke-width: 2; stroke: #000000" x1="583.2" y1="560" x2="420" y2="560"/>
      <polygon style="fill: #000000; fill-opacity: 1; stroke-opacity: 1; stroke-width: 2; stroke: #000000" fill-rule="evenodd" points="583.2,565 599.2,560 583.2,555 "/>
      <text font-size="12.8" style="fill: #000000; fill-opacity: 1; stroke: none;text-anchor:middle;font-family:sans-serif;font-style:normal;font-weight:normal" x="510.1" y="570">Download "foo/bar.b2nd"</text>
    </g>
    <g>
      <line style="fill: none; stroke-opacity: 1; stroke-width: 1; stroke-dasharray: 8; stroke: #000000" x1="822.026" y1="500" x2="822.026" y2="580"/>
      <line style="fill: none; stroke-opacity: 1; stroke-width: 1; stroke-dasharray: 8; stroke: #000000" x1="822.026" y1="660" x2="822.026" y2="680"/>
      <rect style="fill: #ffffff; fill-opacity: 1; stroke-opacity: 1; stroke-width: 2; stroke: #000000" x="815.026" y="580" width="14" height="80"/>
    </g>
    <g>
      <line style="fill: none; stroke-opacity: 1; stroke-width: 2; stroke: #000000" x1="798.024" y1="580" x2="614.2" y2="580"/>
      <polygon style="fill: #000000; fill-opacity: 1; stroke-opacity: 1; stroke-width: 2; stroke: #000000" fill-rule="evenodd" points="798.024,585 814.024,580 798.024,575 "/>
      <text font-size="12.8" style="fill: #000000; fill-opacity: 1; stroke: none;text-anchor:middle;font-family:sans-serif;font-style:normal;font-weight:normal" x="714.612" y="590">Get "foo/bar.b2nd"</text>
    </g>
    <g>
      <line style="fill: none; stroke-opacity: 1; stroke-width: 2; stroke-dasharray: 8; stroke: #000000" x1="631.2" y1="660" x2="815.024" y2="660"/>
      <polygon style="fill: #000000; fill-opacity: 1; stroke-opacity: 1; stroke-width: 2; stroke: #000000" fill-rule="evenodd" points="631.2,655 615.2,660 631.2,665 "/>
      <text font-size="12.8" style="fill: #000000; fill-opacity: 1; stroke: none;text-anchor:middle;font-family:sans-serif;font-style:normal;font-weight:normal" x="714.612" y="670">Data</text>
    </g>
    <g>
      <line style="fill: none; stroke-opacity: 1; stroke-width: 2; stroke-dasharray: 8; stroke: #000000" x1="437" y1="680" x2="600.2" y2="680"/>
      <polygon style="fill: #000000; fill-opacity: 1; stroke-opacity: 1; stroke-width: 2; stroke: #000000" fill-rule="evenodd" points="437,675 421,680 437,685 "/>
      <text font-size="12.8" style="fill: #000000; fill-opacity: 1; stroke: none;text-anchor:middle;font-family:sans-serif;font-style:normal;font-weight:normal" x="510.1" y="690">Data</text>
    </g>
    <g>
      <line style="fill: none; stroke-opacity: 1; stroke-width: 1; stroke-dasharray: 8; stroke: #000000" x1="1418.33" y1="480" x2="1418.33" y2="600"/>
      <line style="fill: none; stroke-opacity: 1; stroke-width: 1; stroke-dasharray: 8; stroke: #000000" x1="1418.33" y1="640" x2="1418.33" y2="660"/>
      <rect style="fill: #ffffff; fill-opacity: 1; stroke-opacity: 1; stroke-width: 2; stroke: #000000" x="1411.33" y="600" width="14" height="40"/>
    </g>
    <g>
      <line style="fill: none; stroke-opacity: 1; stroke-width: 2; stroke: #000000" x1="1394.33" y1="600" x2="829.026" y2="600"/>
      <polygon style="fill: #000000; fill-opacity: 1; stroke-opacity: 1; stroke-width: 2; stroke: #000000" fill-rule="evenodd" points="1394.33,605 1410.33,600 1394.33,595 "/>
      <text font-size="12.8" style="fill: #000000; fill-opacity: 1; stroke: none;text-anchor:middle;font-family:sans-serif;font-style:normal;font-weight:normal" x="1120.17" y="610">Version "foo/bar.b2nd"</text>
    </g>
    <g>
      <line style="fill: none; stroke-opacity: 1; stroke-width: 2; stroke-dasharray: 8; stroke: #000000" x1="846.026" y1="640" x2="1411.33" y2="640"/>
      <polygon style="fill: #000000; fill-opacity: 1; stroke-opacity: 1; stroke-width: 2; stroke: #000000" fill-rule="evenodd" points="846.026,635 830.026,640 846.026,645 "/>
      <text font-size="12.8" style="fill: #000000; fill-opacity: 1; stroke: none;text-anchor:middle;font-family:sans-serif;font-style:normal;font-weight:normal" x="1120.18" y="650">Version</text>
    </g>
    <g>
      <polygon style="fill: #ffffff; fill-opacity: 1; stroke-opacity: 1; stroke-width: 2; stroke: #000000" fill-rule="evenodd" points="840,400 953.8,400 965.8,412 965.8,434 840,434 "/>
      <polyline style="fill: none; stroke-opacity: 1; stroke-width: 1; stroke: #000000" points="953.8,400 953.8,412 965.8,412 "/>
      <text font-size="12.8" style="fill: #000000; fill-opacity: 1; stroke: none;text-anchor:start;font-family:monospace;font-style:normal;font-weight:normal" x="847" y="426.7">
        <tspan x="847" y="426.7">(not in cache)</tspan>
      </text>
    </g>
    <g>
      <polygon style="fill: #ffffff; fill-opacity: 1; stroke-opacity: 1; stroke-width: 2; stroke: #000000" fill-rule="evenodd" points="840,560 923,560 935,572 935,594 840,594 "/>
      <polyline style="fill: none; stroke-opacity: 1; stroke-width: 1; stroke: #000000" points="923,560 923,572 935,572 "/>
      <text font-size="12.8" style="fill: #000000; fill-opacity: 1; stroke: none;text-anchor:start;font-family:monospace;font-style:normal;font-weight:normal" x="847" y="586.7">
        <tspan x="847" y="586.7">(in cache)</tspan>
      </text>
    </g>
    <g>
      <polygon style="fill: #ffffff; fill-opacity: 1; stroke-opacity: 1; stroke-width: 2; stroke: #000000" fill-rule="evenodd" points="680,620 793.8,620 805.8,632 805.8,654 680,654 "/>
      <polyline style="fill: none; stroke-opacity: 1; stroke-width: 1; stroke: #000000" points="793.8,620 793.8,632 805.8,632 "/>
      <text font-size="12.8" style="fill: #000000; fill-opacity: 1; stroke: none;text-anchor:start;font-family:monospace;font-style:normal;font-weight:normal" x="687" y="646.7">
        <tspan x="687" y="646.7">(same version)</tspan>
      </text>
    </g>
    <g>
      <polygon style="fill: #ffffff; fill-opacity: 1; stroke-opacity: 1; stroke-width: 2; stroke: #000000" fill-rule="evenodd" points="700,460 783,460 795,472 795,494 700,494 "/>
      <polyline style="fill: none; stroke-opacity: 1; stroke-width: 1; stroke: #000000" points="783,460 783,472 795,472 "/>
      <text font-size="12.8" style="fill: #000000; fill-opacity: 1; stroke: none;text-anchor:start;font-family:monospace;font-style:normal;font-weight:normal" x="707" y="486.7">
        <tspan x="707" y="486.7">(do cache)</tspan>
      </text>
    </g>
    <g>
      <line style="fill: none; stroke-opacity: 1; stroke-width: 1; stroke-dasharray: 8; stroke: #000000" x1="1418.33" y1="200" x2="1418.33" y2="280"/>
      <line style="fill: none; stroke-opacity: 1; stroke-width: 1; stroke-dasharray: 8; stroke: #000000" x1="1418.33" y1="320" x2="1418.33" y2="340"/>
      <rect style="fill: #ffffff; fill-opacity: 1; stroke-opacity: 1; stroke-width: 2; stroke: #000000" x="1411.33" y="280" width="14" height="40"/>
    </g>
    <g>
      <line style="fill: none; stroke-opacity: 1; stroke-width: 2; stroke: #000000" x1="1394.33" y1="280" x2="829.026" y2="280"/>
      <polygon style="fill: #000000; fill-opacity: 1; stroke-opacity: 1; stroke-width: 2; stroke: #000000" fill-rule="evenodd" points="1394.33,285 1410.33,280 1394.33,275 "/>
      <text font-size="12.8" style="fill: #000000; fill-opacity: 1; stroke: none;text-anchor:middle;font-family:sans-serif;font-style:normal;font-weight:normal" x="1120.18" y="290">Meta "foo"</text>
    </g>
    <g>
      <line style="fill: none; stroke-opacity: 1; stroke-width: 2; stroke-dasharray: 8; stroke: #000000" x1="846.026" y1="320" x2="1411.33" y2="320"/>
      <polygon style="fill: #000000; fill-opacity: 1; stroke-opacity: 1; stroke-width: 2; stroke: #000000" fill-rule="evenodd" points="846.026,315 830.026,320 846.026,325 "/>
      <text font-size="12.8" style="fill: #000000; fill-opacity: 1; stroke: none;text-anchor:middle;font-family:sans-serif;font-style:normal;font-weight:normal" x="1120.17" y="330">Meta</text>
    </g>
    <g>
      <polygon style="fill: #ffffff; fill-opacity: 1; stroke-opacity: 1; stroke-width: 2; stroke: #000000" fill-rule="evenodd" points="720,300 795.3,300 807.3,312 807.3,334 720,334 "/>
      <polyline style="fill: none; stroke-opacity: 1; stroke-width: 1; stroke: #000000" points="795.3,300 795.3,312 807.3,312 "/>
      <text font-size="12.8" style="fill: #000000; fill-opacity: 1; stroke: none;text-anchor:start;font-family:monospace;font-style:normal;font-weight:normal" x="727" y="326.7">
        <tspan x="727" y="326.7">(do save)</tspan>
      </text>
    </g>
    <g>
      <line style="fill: none; stroke-opacity: 1; stroke-width: 2; stroke: #000000" x1="1442.33" y1="120" x2="1560" y2="120"/>
      <polygon style="fill: #000000; fill-opacity: 1; stroke-opacity: 1; stroke-width: 2; stroke: #000000" fill-rule="evenodd" points="1442.33,115 1426.33,120 1442.33,125 "/>
      <text font-size="12.8" style="fill: #000000; fill-opacity: 1; stroke: none;text-anchor:middle;font-family:sans-serif;font-style:normal;font-weight:normal" x="1492.66" y="130">Publish "foo"</text>
    </g>
    <g>
      <line style="fill: none; stroke-opacity: 1; stroke-width: 1; stroke-dasharray: 8; stroke: #000000" x1="607.2" y1="680" x2="607.2" y2="720"/>
      <line style="fill: none; stroke-opacity: 1; stroke-width: 1; stroke-dasharray: 8; stroke: #000000" x1="607.2" y1="980" x2="607.2" y2="1020"/>
      <rect style="fill: #ffffff; fill-opacity: 1; stroke-opacity: 1; stroke-width: 2; stroke: #000000" x="600.2" y="720" width="14" height="260"/>
    </g>
    <g>
      <line style="fill: none; stroke-opacity: 1; stroke-width: 2; stroke: #000000" x1="583.2" y1="720" x2="420" y2="720"/>
      <polygon style="fill: #000000; fill-opacity: 1; stroke-opacity: 1; stroke-width: 2; stroke: #000000" fill-rule="evenodd" points="583.2,725 599.2,720 583.2,715 "/>
      <text font-size="12.8" style="fill: #000000; fill-opacity: 1; stroke: none;text-anchor:middle;font-family:sans-serif;font-style:normal;font-weight:normal" x="510.1" y="730">Download "foo/bar.b2nd"</text>
    </g>
    <g>
      <line style="fill: none; stroke-opacity: 1; stroke-width: 1; stroke-dasharray: 8; stroke: #000000" x1="822.026" y1="660" x2="822.026" y2="740"/>
      <line style="fill: none; stroke-opacity: 1; stroke-width: 1; stroke-dasharray: 8; stroke: #000000" x1="822.026" y1="960" x2="822.026" y2="1020"/>
      <rect style="fill: #ffffff; fill-opacity: 1; stroke-opacity: 1; stroke-width: 2; stroke: #000000" x="815.026" y="740" width="14" height="220"/>
    </g>
    <g>
      <line style="fill: none; stroke-opacity: 1; stroke-width: 2; stroke: #000000" x1="798.026" y1="740" x2="614.2" y2="740"/>
      <polygon style="fill: #000000; fill-opacity: 1; stroke-opacity: 1; stroke-width: 2; stroke: #000000" fill-rule="evenodd" points="798.026,745 814.026,740 798.026,735 "/>
      <text font-size="12.8" style="fill: #000000; fill-opacity: 1; stroke: none;text-anchor:middle;font-family:sans-serif;font-style:normal;font-weight:normal" x="714.614" y="750">Get "foo/bar.b2nd"</text>
    </g>
    <g>
      <line style="fill: none; stroke-opacity: 1; stroke-width: 2; stroke-dasharray: 8; stroke: #000000" x1="631.2" y1="940" x2="815.026" y2="940"/>
      <polygon style="fill: #000000; fill-opacity: 1; stroke-opacity: 1; stroke-width: 2; stroke: #000000" fill-rule="evenodd" points="631.2,935 615.2,940 631.2,945 "/>
      <text font-size="12.8" style="fill: #000000; fill-opacity: 1; stroke: none;text-anchor:middle;font-family:sans-serif;font-style:normal;font-weight:normal" x="714.614" y="950">Data</text>
    </g>
    <g>
      <line style="fill: none; stroke-opacity: 1; stroke-width: 2; stroke-dasharray: 8; stroke: #000000" x1="437" y1="960" x2="600.2" y2="960"/>
      <polygon style="fill: #000000; fill-opacity: 1; stroke-opacity: 1; stroke-width: 2; stroke: #000000" fill-rule="evenodd" points="437,955 421,960 437,965 "/>
      <text font-size="12.8" style="fill: #000000; fill-opacity: 1; stroke: none;text-anchor:middle;font-family:sans-serif;font-style:normal;font-weight:normal" x="510.1" y="970">Data</text>
    </g>
    <g>
      <line style="fill: none; stroke-opacity: 1; stroke-width: 1; stroke-dasharray: 8; stroke: #000000" x1="1418.33" y1="640" x2="1418.33" y2="760"/>
      <line style="fill: none; stroke-opacity: 1; stroke-width: 1; stroke-dasharray: 8; stroke: #000000" x1="1418.33" y1="800" x2="1418.33" y2="820"/>
      <rect style="fill: #ffffff; fill-opacity: 1; stroke-opacity: 1; stroke-width: 2; stroke: #000000" x="1411.33" y="760" width="14" height="40"/>
    </g>
    <g>
      <line style="fill: none; stroke-opacity: 1; stroke-width: 2; stroke: #000000" x1="1394.33" y1="760" x2="829.026" y2="760"/>
      <polygon style="fill: #000000; fill-opacity: 1; stroke-opacity: 1; stroke-width: 2; stroke: #000000" fill-rule="evenodd" points="1394.33,765 1410.33,760 1394.33,755 "/>
      <text font-size="12.8" style="fill: #000000; fill-opacity: 1; stroke: none;text-anchor:middle;font-family:sans-serif;font-style:normal;font-weight:normal" x="1120.17" y="770">Version "foo/bar.b2nd"</text>
    </g>
    <g>
      <line style="fill: none; stroke-opacity: 1; stroke-width: 2; stroke-dasharray: 8; stroke: #000000" x1="846.026" y1="800" x2="1411.33" y2="800"/>
      <polygon style="fill: #000000; fill-opacity: 1; stroke-opacity: 1; stroke-width: 2; stroke: #000000" fill-rule="evenodd" points="846.026,795 830.026,800 846.026,805 "/>
      <text font-size="12.8" style="fill: #000000; fill-opacity: 1; stroke: none;text-anchor:middle;font-family:sans-serif;font-style:normal;font-weight:normal" x="1120.18" y="810">Version</text>
    </g>
    <g>
      <polygon style="fill: #ffffff; fill-opacity: 1; stroke-opacity: 1; stroke-width: 2; stroke: #000000" fill-rule="evenodd" points="840,720 923,720 935,732 935,754 840,754 "/>
      <polyline style="fill: none; stroke-opacity: 1; stroke-width: 1; stroke: #000000" points="923,720 923,732 935,732 "/>
      <text font-size="12.8" style="fill: #000000; fill-opacity: 1; stroke: none;text-anchor:start;font-family:monospace;font-style:normal;font-weight:normal" x="847" y="746.7">
        <tspan x="847" y="746.7">(in cache)</tspan>
      </text>
    </g>
    <g>
      <polygon style="fill: #ffffff; fill-opacity: 1; stroke-opacity: 1; stroke-width: 2; stroke: #000000" fill-rule="evenodd" points="680,780 786.1,780 798.1,792 798.1,814 680,814 "/>
      <polyline style="fill: none; stroke-opacity: 1; stroke-width: 1; stroke: #000000" points="786.1,780 786.1,792 798.1,792 "/>
      <text font-size="12.8" style="fill: #000000; fill-opacity: 1; stroke: none;text-anchor:start;font-family:monospace;font-style:normal;font-weight:normal" x="687" y="806.7">
        <tspan x="687" y="806.7">(old version)</tspan>
      </text>
    </g>
    <g>
      <line style="fill: none; stroke-opacity: 1; stroke-width: 2; stroke: #000000" x1="1394.33" y1="820" x2="829.026" y2="820"/>
      <polygon style="fill: #000000; fill-opacity: 1; stroke-opacity: 1; stroke-width: 2; stroke: #000000" fill-rule="evenodd" points="1394.33,825 1410.33,820 1394.33,815 "/>
      <text font-size="12.8" style="fill: #000000; fill-opacity: 1; stroke: none;text-anchor:middle;font-family:sans-serif;font-style:normal;font-weight:normal" x="1120.17" y="830">Meta "foo/bar.b2nd"</text>
    </g>
    <g>
      <line style="fill: none; stroke-opacity: 1; stroke-width: 1; stroke-dasharray: 8; stroke: #000000" x1="1418.33" y1="800" x2="1418.33" y2="820"/>
      <line style="fill: none; stroke-opacity: 1; stroke-width: 1; stroke-dasharray: 8; stroke: #000000" x1="1418.33" y1="860" x2="1418.33" y2="880"/>
      <rect style="fill: #ffffff; fill-opacity: 1; stroke-opacity: 1; stroke-width: 2; stroke: #000000" x="1411.33" y="820" width="14" height="40"/>
    </g>
    <g>
      <line style="fill: none; stroke-opacity: 1; stroke-width: 2; stroke-dasharray: 8; stroke: #000000" x1="846.026" y1="860" x2="1411.33" y2="860"/>
      <polygon style="fill: #000000; fill-opacity: 1; stroke-opacity: 1; stroke-width: 2; stroke: #000000" fill-rule="evenodd" points="846.026,855 830.026,860 846.026,865 "/>
      <text font-size="12.8" style="fill: #000000; fill-opacity: 1; stroke: none;text-anchor:middle;font-family:sans-serif;font-style:normal;font-weight:normal" x="1120.17" y="870">Meta</text>
    </g>
    <g>
      <polygon style="fill: #ffffff; fill-opacity: 1; stroke-opacity: 1; stroke-width: 2; stroke: #000000" fill-rule="evenodd" points="700,900 783,900 795,912 795,934 700,934 "/>
      <polyline style="fill: none; stroke-opacity: 1; stroke-width: 1; stroke: #000000" points="783,900 783,912 795,912 "/>
      <text font-size="12.8" style="fill: #000000; fill-opacity: 1; stroke: none;text-anchor:start;font-family:monospace;font-style:normal;font-weight:normal" x="707" y="926.7">
        <tspan x="707" y="926.7">(do cache)</tspan>
      </text>
    </g>
    <g>
      <line style="fill: none; stroke-opacity: 1; stroke-width: 1; stroke-dasharray: 8; stroke: #000000" x1="1418.33" y1="860" x2="1418.33" y2="880"/>
      <line style="fill: none; stroke-opacity: 1; stroke-width: 1; stroke-dasharray: 8; stroke: #000000" x1="1418.33" y1="920" x2="1418.33" y2="1020"/>
      <rect style="fill: #ffffff; fill-opacity: 1; stroke-opacity: 1; stroke-width: 2; stroke: #000000" x="1411.33" y="880" width="14" height="40"/>
    </g>
    <g>
      <line style="fill: none; stroke-opacity: 1; stroke-width: 2; stroke: #000000" x1="1394.33" y1="880" x2="829.026" y2="880"/>
      <polygon style="fill: #000000; fill-opacity: 1; stroke-opacity: 1; stroke-width: 2; stroke: #000000" fill-rule="evenodd" points="1394.33,885 1410.33,880 1394.33,875 "/>
      <text font-size="12.8" style="fill: #000000; fill-opacity: 1; stroke: none;text-anchor:middle;font-family:sans-serif;font-style:normal;font-weight:normal" x="1120.17" y="890">Data "foo/bar.b2nd"</text>
    </g>
    <g>
      <line style="fill: none; stroke-opacity: 1; stroke-width: 2; stroke-dasharray: 8; stroke: #000000" x1="846.026" y1="920" x2="1411.33" y2="920"/>
      <polygon style="fill: #000000; fill-opacity: 1; stroke-opacity: 1; stroke-width: 2; stroke: #000000" fill-rule="evenodd" points="846.026,915 830.026,920 846.026,925 "/>
      <text font-size="12.8" style="fill: #000000; fill-opacity: 1; stroke: none;text-anchor:middle;font-family:sans-serif;font-style:normal;font-weight:normal" x="1120.17" y="930">Data</text>
    </g>
    <g>
      <polygon style="fill: #ffffff; fill-opacity: 1; stroke-opacity: 1; stroke-width: 2; stroke: #000000" fill-rule="evenodd" points="720,840 795.3,840 807.3,852 807.3,874 720,874 "/>
      <polyline style="fill: none; stroke-opacity: 1; stroke-width: 1; stroke: #000000" points="795.3,840 795.3,852 807.3,852 "/>
      <text font-size="12.8" style="fill: #000000; fill-opacity: 1; stroke: none;text-anchor:start;font-family:monospace;font-style:normal;font-weight:normal" x="727" y="866.7">
        <tspan x="727" y="866.7">(do save)</tspan>
      </text>
    </g>
  </g>
</svg>
