<?xml version="1.0" encoding="UTF-8" standalone="no"?>
<!-- Created with Inkscape (http://www.inkscape.org/) -->

<svg
   id="svg2"
   viewBox="0 0 3637.2295 4952.4235"
   version="1.1"
   sodipodi:docname="Cubes.svg"
   inkscape:version="1.3.2 (091e20e, 2023-11-25)"
   width="15.653cm"
   height="21.313cm"
   xml:space="preserve"
   xmlns:inkscape="http://www.inkscape.org/namespaces/inkscape"
   xmlns:sodipodi="http://sodipodi.sourceforge.net/DTD/sodipodi-0.dtd"
   xmlns="http://www.w3.org/2000/svg"
   xmlns:svg="http://www.w3.org/2000/svg"
   xmlns:rdf="http://www.w3.org/1999/02/22-rdf-syntax-ns#"
   xmlns:cc="http://creativecommons.org/ns#"
   xmlns:dc="http://purl.org/dc/elements/1.1/"><defs
     id="defs1" /><sodipodi:namedview
     id="namedview1"
     pagecolor="#ffffff"
     bordercolor="#666666"
     borderopacity="1.0"
     inkscape:showpageshadow="2"
     inkscape:pageopacity="0.0"
     inkscape:pagecheckerboard="0"
     inkscape:deskcolor="#d1d1d1"
     inkscape:zoom="1.4485572"
     inkscape:cx="251.97486"
     inkscape:cy="359.32306"
     inkscape:window-width="1856"
     inkscape:window-height="1212"
     inkscape:window-x="0"
     inkscape:window-y="25"
     inkscape:window-maximized="0"
     inkscape:current-layer="svg2"
     inkscape:document-units="cm" /><metadata
     id="metadata7"><rdf:RDF><cc:Work
         rdf:about=""><dc:format>image/svg+xml</dc:format><dc:type
           rdf:resource="http://purl.org/dc/dcmitype/StillImage" /></cc:Work></rdf:RDF></metadata><g
     id="layer2"
     stroke-linejoin="round"
     transform="matrix(6.0601515,0,0,6.0601515,236.64441,175.08598)"
     stroke="#000000"
     stroke-linecap="round"
     fill="none"><path
       id="path2999"
       d="M 5,164 V 44 L 65,14 h 120 v 120 l -60,30 z"
       stroke-width="1px" /><path
       id="path3001"
       d="M 5,44 H 125 L 185,14"
       stroke-width="1px" /><path
       id="path3003"
       d="M 125,44 V 164"
       stroke-width="1px" /><path
       id="path3005"
       d="M 5,164 65,134 V 14"
       stroke-dashoffset="0"
       stroke-miterlimit="4"
       stroke-dasharray="2, 4"
       stroke-width="1" /><path
       id="path3775"
       d="M 65,134 H 185"
       stroke-dashoffset="0"
       stroke-miterlimit="4"
       stroke-dasharray="2, 4"
       stroke-width="1" /></g><g
     id="layer2-7"
     stroke-linejoin="round"
     transform="matrix(6.0601515,0,0,6.0601515,1971.9959,1717.0596)"
     stroke="#000000"
     stroke-linecap="round"
     fill="none"><path
       id="path2999-5"
       d="M 5,164 V 44 L 65,14 h 120 v 120 l -60,30 z"
       stroke-width="1px" /><path
       id="path3001-7"
       d="M 5,44 H 125 L 185,14"
       stroke-width="1px" /><path
       id="path3003-2"
       d="M 125,44 V 164"
       stroke-width="1px" /><path
       id="path3005-9"
       d="M 5,164 65,134 V 14"
       stroke-dashoffset="0"
       stroke-miterlimit="4"
       stroke-dasharray="2, 4"
       stroke-width="1" /><path
       id="path3775-7"
       d="M 65,134 H 185"
       stroke-dashoffset="0"
       stroke-miterlimit="4"
       stroke-dasharray="2, 4"
       stroke-width="1" /></g><path
     style="opacity:0.196364;fill:#000000;fill-opacity:0;stroke:#ddde27;stroke-width:0.131573;stroke-miterlimit:10"
     d="m 0.5879665,34.670077 c 0,-0.11073 -0.0567,-0.13009 -0.26109,-0.0892 l -0.26109,0.0522 V 17.620817 0.60855713 h 8.4318 c 8.3585995,0 8.4321895,0.002 8.4773095,0.17406 0.025,0.0957 0.10529,0.17406 0.17834,0.17406 0.0731,0 0.15769,-0.0783 0.18808,-0.17406 0.0547,-0.17247 0.13168,-0.17406 8.44781,-0.17406 h 8.39257 V 17.710027 34.811497 h -16.79686 c -15.4467795,0 -16.7968695,-0.0114 -16.7968695,-0.14142 z m 1.2837,-0.46684 c 0.29041,-0.17706 0.38263,-0.4361 0.15526,-0.4361 -0.25874,0 -0.74271,0.29406 -0.74271,0.45127 0,0.20766 0.2318,0.20168 0.58745,-0.0152 z m 1.56655,-0.78327 c 0.49614,-0.3025 0.29628,-0.54709 -0.2469,-0.30215 -0.21781,0.0982 -0.34056,0.21154 -0.34056,0.31441 0,0.21067 0.22968,0.20588 0.58746,-0.0123 z m 1.50559,-0.74295 c 0.24549,-0.12694 0.36745,-0.47643 0.16628,-0.47643 -0.14404,0 -0.77981,0.34439 -0.77981,0.42241 0,0.21783 0.25358,0.24016 0.61353,0.054 z m 1.56655,-0.78327 c 0.25456,-0.13164 0.33448,-0.3311 0.17273,-0.43107 -0.12634,-0.0781 -0.78626,0.28709 -0.78626,0.43507 0,0.16675 0.28694,0.16488 0.61353,-0.004 z m 1.56655,-0.78328 c 0.25456,-0.13163 0.33448,-0.3311 0.17272,-0.43106 -0.12633,-0.0781 -0.78626,0.28708 -0.78626,0.43507 0,0.16675 0.28695,0.16488 0.61354,-0.004 z m 1.41424,-0.70615 c 0.3417897,-0.17509 0.4269897,-0.29656 0.3083097,-0.43955 -0.0723,-0.0871 -0.1466697,-0.0811 -0.3648997,0.0297 -0.39949,0.20277 -0.48704,0.28925 -0.43367,0.42834 0.0613,0.15971 0.14884,0.15641 0.49026,-0.0185 z m 1.5810295,-0.78724 c 0.30943,-0.14756 0.43199,-0.46255 0.17997,-0.46255 -0.20569,0 -0.74271,0.28434 -0.74271,0.39324 0,0.24834 0.14886,0.26667 0.56274,0.0693 z m 1.59126,-0.80972 c 0.2904,-0.17707 0.38262,-0.43611 0.15526,-0.43611 -0.20569,0 -0.74272,0.28435 -0.74272,0.39325 0,0.26089 0.2053,0.27586 0.58746,0.0428 z m 1.56655,-0.78328 c 0.49614,-0.3025 0.29628,-0.54708 -0.2469,-0.30215 -0.21782,0.0982 -0.34056,0.21155 -0.34056,0.31442 0,0.21067 0.22968,0.20587 0.58746,-0.0123 z m 1.50559,-0.74294 c 0.24548,-0.12694 0.36745,-0.47643 0.16627,-0.47643 -0.14404,0 -0.7798,0.34439 -0.7798,0.42241 0,0.21783 0.25358,0.24016 0.61353,0.054 z m 2.10616,-0.7976 c 0.15969,-0.0911 0.0439,-0.29667 -0.19386,-0.34422 -0.14253,-0.0285 -0.30204,-0.10353 -0.35448,-0.16672 -0.12432,-0.14978 -0.34372,-0.0631 -0.34372,0.13586 0,0.0855 -0.0587,0.17799 -0.13054,0.20554 -0.0718,0.0276 -0.13055,0.11201 -0.13055,0.18769 0,0.11709 0.0811,0.12877 0.54394,0.0783 0.29917,-0.0326 0.57331,-0.076 0.60921,-0.0965 z m 1.77778,-0.0793 c 0.0674,-0.17564 -0.1132,-0.29315 -0.45056,-0.29315 -0.33736,0 -0.51797,0.11751 -0.45056,0.29315 0.0382,0.0996 0.16674,0.13933 0.45056,0.13933 0.28382,0 0.41235,-0.0397 0.45056,-0.13933 z m 1.74061,0 c 0.0674,-0.17564 -0.1132,-0.29315 -0.45056,-0.29315 -0.33736,0 -0.51797,0.11751 -0.45057,0.29315 0.0382,0.0996 0.16675,0.13933 0.45057,0.13933 0.28382,0 0.41235,-0.0397 0.45056,-0.13933 z m 1.70908,0.0194 c 0.0721,-0.18799 -0.1195,-0.31521 -0.47482,-0.31521 -0.34385,0 -0.46997,0.0999 -0.38981,0.30877 0.065,0.16943 0.79999,0.1749 0.86463,0.006 z m 1.6975,-0.0759 c -0.0241,-0.16994 -0.0796,-0.19582 -0.41944,-0.19582 -0.33988,0 -0.39531,0.0259 -0.41945,0.19582 -0.0258,0.18128 0.006,0.19582 0.41945,0.19582 0.41404,0 0.44519,-0.0146 0.41944,-0.19582 z m 1.7128,-0.0218 c 0,-0.14141 -0.0667,-0.17895 -0.35565,-0.20013 -0.23655,-0.0174 -0.39206,0.0178 -0.4644,0.10498 -0.17666,0.21286 -0.0213,0.32358 0.41454,0.29541 0.33876,-0.0219 0.40551,-0.0548 0.40551,-0.20026 z m 1.75602,0.0782 c 0.0674,-0.17564 -0.1132,-0.29315 -0.45056,-0.29315 -0.33736,0 -0.51797,0.11751 -0.45057,0.29315 0.0382,0.0996 0.16675,0.13933 0.45057,0.13933 0.28382,0 0.41235,-0.0397 0.45056,-0.13933 z m 1.74061,0 c 0.0674,-0.17564 -0.11321,-0.29315 -0.45057,-0.29315 -0.33735,0 -0.51797,0.11751 -0.45056,0.29315 0.0382,0.0996 0.16675,0.13933 0.45056,0.13933 0.28382,0 0.41235,-0.0397 0.45057,-0.13933 z m 1.74061,0 c 0.0674,-0.17564 -0.11321,-0.29315 -0.45057,-0.29315 -0.33736,0 -0.51796,0.11751 -0.45057,0.29315 0.0382,0.0996 0.16675,0.13933 0.45057,0.13933 0.28382,0 0.41235,-0.0397 0.45057,-0.13933 z m 1.70908,0.0194 c 0.0721,-0.18799 -0.1195,-0.31522 -0.47483,-0.31522 -0.34385,0 -0.46996,0.0999 -0.38981,0.30878 0.065,0.16943 0.79999,0.1749 0.86464,0.006 z m -16.08451,-1.79473 c 0,-0.33362 -0.0258,-0.39164 -0.17406,-0.39164 -0.14632,0 -0.17833,0.0669 -0.20086,0.42011 -0.0252,0.39525 -0.0149,0.41842 0.17406,0.39164 0.17582,-0.0249 0.20086,-0.0773 0.20086,-0.42011 z m -0.0609,-1.32286 c 0.12151,-0.12152 0.13658,-0.58034 0.0249,-0.7568 -0.15322,-0.24197 -0.35557,-0.034 -0.35557,0.36533 0,0.4875 0.10747,0.61471 0.33072,0.39147 z m 0.0516,-1.77384 c 0.14901,-0.38832 -0.003,-0.88364 -0.243,-0.79157 -0.0983,0.0377 -0.13933,0.16532 -0.13933,0.43333 0,0.20892 0.0261,0.40598 0.058,0.43789 0.10288,0.10287 0.27002,0.0618 0.32431,-0.0796 z m 0,-1.7406 c 0.14901,-0.38832 -0.003,-0.88365 -0.243,-0.79157 -0.0983,0.0377 -0.13933,0.16531 -0.13933,0.43333 0,0.20892 0.0261,0.40597 0.058,0.43788 0.10288,0.10287 0.27002,0.0618 0.32431,-0.0796 z m 0.0354,-2.00286 c 0.0267,-0.36375 -0.14213,-0.63044 -0.32686,-0.51626 -0.10119,0.0625 -0.12552,0.76545 -0.0298,0.86116 0.16002,0.16001 0.33179,-0.006 0.35668,-0.3449 z m -0.026,-1.77704 c 0,-0.33865 -0.026,-0.39414 -0.19581,-0.41825 -0.17763,-0.0252 -0.19582,0.008 -0.19582,0.35537 0,0.41998 0.0528,0.51857 0.25684,0.47928 0.0978,-0.0188 0.13479,-0.13307 0.13479,-0.4164 z m 0.026,-1.77541 c -0.0212,-0.28894 -0.0587,-0.35564 -0.20013,-0.35564 -0.14354,0 -0.17886,0.0671 -0.20147,0.38301 -0.0174,0.24359 0.0132,0.4081 0.0841,0.45193 0.19695,0.12172 0.34513,-0.10198 0.31748,-0.4793 z m -0.0354,-1.32009 c 0.14901,-0.38832 -0.003,-0.88365 -0.243,-0.79157 -0.0983,0.0377 -0.13933,0.16531 -0.13933,0.43333 0,0.20892 0.0261,0.40597 0.058,0.43788 0.10288,0.10287 0.27002,0.0618 0.32431,-0.0796 z m 0,-1.74061 c 0.14901,-0.38832 -0.003,-0.88365 -0.243,-0.79157 -0.0983,0.0377 -0.13933,0.16531 -0.13933,0.43333 0,0.20892 0.0261,0.40597 0.058,0.43788 0.10288,0.10288 0.27002,0.0618 0.32431,-0.0796 z m 0,-1.7406098 c 0.14901,-0.38832 -0.003,-0.88364 -0.243,-0.79157 -0.0983,0.0377 -0.13933,0.16532 -0.13933,0.43333 0,0.20892 0.0261,0.40597 0.058,0.43788 0.10288,0.10288 0.27002,0.0618 0.32431,-0.0796 z m 0.0367,-1.97962 c 0.03,-0.36415 -0.10127,-0.59694 -0.29483,-0.52266 -0.1295,0.0497 -0.18019,0.7273 -0.0632,0.84433 0.15429,0.15429 0.33187,-0.005 0.35799,-0.32167 z m -0.0274,-1.79908 c 0,-0.33988 -0.0259,-0.39531 -0.19582,-0.41945 -0.18128,-0.0258 -0.19582,0.005 -0.19582,0.41945 0,0.41404 0.0145,0.44519 0.19582,0.41944 0.16994,-0.0241 0.19582,-0.0796 0.19582,-0.41944 z m -0.0485,-1.3429 c 0.0568,-0.0685 0.091,-0.27407 0.0759,-0.45691 -0.0218,-0.26529 -0.0625,-0.33244 -0.20144,-0.33244 -0.13919,0 -0.17958,0.0672 -0.20161,0.33552 -0.0439,0.53435 0.0975,0.7305 0.32712,0.45383 z m 0.0392,-1.7538 c 0.14901,-0.38832 -0.003,-0.8836501 -0.243,-0.79157 -0.0983,0.0377 -0.13933,0.16532 -0.13933,0.43333 0,0.20893 0.0261,0.40597 0.058,0.43788 0.10288,0.10288 0.27002,0.0618 0.32431,-0.0796 z"
     id="path1" /><rect
     style="opacity:0.503;fill:#deab28;fill-opacity:1;stroke:none;stroke-width:9.29465;stroke-miterlimit:10;stroke-opacity:1"
     id="rect4-4"
     width="727.87775"
     height="723.12036"
     x="2189.3823"
     y="1888.5712" /><rect
     style="opacity:0.613;fill:#deab28;fill-opacity:1;stroke:#000000;stroke-width:9.29465;stroke-miterlimit:10;stroke-opacity:0.01568628"
     id="rect4-4-5"
     width="727.87775"
     height="723.12036"
     x="532.802"
     y="1848.9093" /><path
     style="opacity:0.643;fill:#deab28;fill-opacity:0.643137;stroke:none;stroke-width:0.239977;stroke-miterlimit:10;stroke-opacity:0.0156863"
     d="m 45.703064,189.27255 c 0.02074,-0.55337 -0.434848,-0.72641 -1.089989,-0.414 l -0.564124,0.26902 V 130.79504 72.462508 h 28.958586 28.958583 l 0.0502,0.436521 c 0.0423,0.368039 0.12494,0.436521 0.52643,0.436521 0.4015,0 0.48409,-0.06848 0.52643,-0.436521 l 0.0502,-0.436521 h 29.03796 29.03795 v 58.573202 58.5732 H 103.44291 45.69046 Z m 4.298448,-1.77134 c 0.7737,-0.41547 0.952409,-0.58589 0.952409,-0.90827 0,-0.59205 -0.647696,-0.59453 -1.811717,-0.007 -0.764404,0.38587 -0.966144,0.56457 -0.966144,0.8558 0,0.75265 0.503896,0.76905 1.825452,0.0594 z m 5.17272,-2.58195 c 1.009871,-0.50856 1.112298,-0.60376 1.067498,-0.99209 -0.07139,-0.61887 -0.641984,-0.61642 -1.79471,0.008 -1.012544,0.54821 -1.266661,0.98328 -0.781526,1.33802 0.361368,0.26424 0.212554,0.29912 1.508738,-0.35363 z m 5.30092,-2.6463 c 1.060313,-0.52286 1.365913,-0.91595 1.028322,-1.32273 -0.272112,-0.32787 -0.517489,-0.29115 -1.555368,0.23277 -1.153672,0.58237 -1.377945,0.83226 -1.142235,1.27269 0.235424,0.43989 0.455537,0.4158 1.669281,-0.18273 z m 5.399855,-2.7085 c 0.7737,-0.41546 0.95241,-0.58589 0.95241,-0.90827 0,-0.59204 -0.647697,-0.59452 -1.811717,-0.007 -0.764405,0.38587 -0.966145,0.56457 -0.966145,0.85581 0,0.75264 0.503897,0.76904 1.825452,0.0594 z m 5.17272,-2.58195 c 1.009872,-0.50856 1.112299,-0.60375 1.067499,-0.99209 -0.07139,-0.61887 -0.641984,-0.61642 -1.79471,0.008 -1.012544,0.54821 -1.266662,0.98328 -0.781526,1.33802 0.361368,0.26424 0.212554,0.29912 1.508737,-0.35363 z m 5.300921,-2.6463 c 1.060313,-0.52286 1.365913,-0.91595 1.028321,-1.32272 -0.272111,-0.32788 -0.517488,-0.29116 -1.555367,0.23276 -1.153672,0.58238 -1.377945,0.83226 -1.142235,1.27269 0.235423,0.43989 0.455536,0.4158 1.669281,-0.18273 z m 5.399855,-2.7085 c 0.7737,-0.41546 0.95241,-0.58589 0.95241,-0.90826 0,-0.59205 -0.647697,-0.59453 -1.811717,-0.007 -0.764405,0.38587 -0.966145,0.56457 -0.966145,0.85581 0,0.75265 0.503896,0.76904 1.825452,0.0594 z m 5.17272,-2.58195 c 1.009872,-0.50856 1.112299,-0.60375 1.067499,-0.99209 -0.07139,-0.61886 -0.641985,-0.61642 -1.79471,0.008 -1.012545,0.54822 -1.266662,0.98328 -0.781527,1.33802 0.361368,0.26424 0.212554,0.29912 1.508738,-0.35363 z m 5.29596,-2.64385 c 1.104918,-0.54486 1.290536,-0.76932 1.03345,-1.24969 -0.226084,-0.42244 -0.556658,-0.37944 -1.648375,0.21439 -1.094114,0.59513 -1.361484,0.92251 -1.055008,1.29179 0.292485,0.35242 0.499652,0.3206 1.669933,-0.25649 z m 5.404816,-2.71095 c 0.773699,-0.41546 0.95241,-0.58589 0.95241,-0.90826 0,-0.59205 -0.647698,-0.59453 -1.811717,-0.007 -0.764406,0.38587 -0.966145,0.56457 -0.966145,0.8558 0,0.75265 0.503896,0.76904 1.825452,0.0594 z m 4.523951,-2.25751 c 0.23134,-0.13225 0.83894,-0.2292 1.45696,-0.23248 1.01269,-0.005 1.559,-0.22984 1.559,-0.64056 0,-0.36269 -0.54463,-0.63494 -1.27018,-0.63494 -0.67901,0 -0.77736,-0.0427 -0.82202,-0.35715 -0.0397,-0.27975 -0.15394,-0.35716 -0.52693,-0.35716 -0.41317,0 -0.48241,0.0632 -0.52308,0.47743 -0.0328,0.33471 -0.18707,0.5579 -0.51588,0.74661 -0.52751,0.30275 -0.61958,0.81542 -0.19123,1.0649 0.35228,0.20519 0.35872,0.20468 0.83336,-0.0667 z m 8.58212,-0.40242 c 0.16887,-0.0904 0.30703,-0.30215 0.30703,-0.47062 0,-0.44865 -0.48263,-0.63494 -1.64494,-0.63494 -0.98486,0 -1.52976,0.22616 -1.52976,0.63494 0,0.0748 0.11225,0.24831 0.24944,0.3855 0.29155,0.29154 2.12137,0.35103 2.61823,0.0851 z m 5.98974,-0.0262 c 0.28602,-0.28602 0.22949,-0.72989 -0.11655,-0.91508 -0.33192,-0.17764 -2.04835,-0.22511 -2.45784,-0.068 -0.30013,0.11517 -0.34138,0.95191 -0.0527,1.0684 0.41503,0.16747 2.44003,0.10168 2.62706,-0.0853 z m 5.81259,0.0941 c 0.14582,-0.056 0.25109,-0.28176 0.25109,-0.53859 0,-0.54903 -0.21223,-0.63494 -1.56859,-0.63494 -1.08267,0 -1.44737,0.15999 -1.44737,0.63494 0,0.47495 0.3647,0.63494 1.44737,0.63494 0.58653,0 1.17941,-0.0434 1.3175,-0.0964 z m 6.03358,-0.15309 c 0.13719,-0.13719 0.24944,-0.31067 0.24944,-0.3855 0,-0.0748 -0.11225,-0.24831 -0.24944,-0.3855 -0.29154,-0.29154 -2.12137,-0.35103 -2.61823,-0.0851 -0.38262,0.20478 -0.39872,0.71891 -0.0292,0.93411 0.45907,0.26739 2.35803,0.21145 2.64747,-0.078 z m 5.8156,0.0851 c 0.16887,-0.0904 0.30703,-0.30215 0.30703,-0.47062 0,-0.44865 -0.48263,-0.63494 -1.64494,-0.63494 -0.98486,0 -1.52976,0.22616 -1.52976,0.63494 0,0.0748 0.11225,0.24831 0.24944,0.3855 0.29155,0.29154 2.12137,0.35103 2.61823,0.0851 z m 6.08336,-0.19283 c 0.33444,-0.53208 -0.0633,-0.82808 -1.18462,-0.88152 -1.4377,-0.0685 -1.73448,0.033 -1.73448,0.59353 0,0.58158 0.13572,0.63309 1.57067,0.59606 0.92365,-0.0238 1.21104,-0.0895 1.34843,-0.30807 z m 5.71897,0.2608 c 0.14582,-0.056 0.25109,-0.28176 0.25109,-0.53859 0,-0.25683 -0.10527,-0.48263 -0.25109,-0.53859 -0.40949,-0.15714 -2.12592,-0.10967 -2.45784,0.068 -0.34604,0.18519 -0.40257,0.62906 -0.11655,0.91508 0.19773,0.19773 2.12114,0.26806 2.57439,0.0941 z m 6.03358,-0.15309 c 0.13719,-0.13719 0.24944,-0.31067 0.24944,-0.3855 0,-0.0748 -0.11225,-0.24831 -0.24944,-0.3855 -0.29155,-0.29154 -2.12137,-0.35103 -2.61823,-0.0851 -0.38262,0.20478 -0.39872,0.71891 -0.0293,0.93411 0.45908,0.26739 2.35804,0.21145 2.64748,-0.078 z m 5.8156,0.0851 c 0.16886,-0.0904 0.30703,-0.30215 0.30703,-0.47062 0,-0.44865 -0.48263,-0.63494 -1.64494,-0.63494 -0.98486,0 -1.52976,0.22616 -1.52976,0.63494 0,0.0748 0.11225,0.24831 0.24944,0.3855 0.29154,0.29154 2.12137,0.35103 2.61823,0.0851 z m -55.0121,-6.26445 v -1.42861 h -0.47621 -0.4762 l -0.0478,1.10782 c -0.0668,1.54881 0.032,1.86104 0.56919,1.7991 l 0.43099,-0.0497 z m -0.17172,-4.46156 c 0.20271,-0.0778 0.25108,-0.36625 0.25108,-1.49728 0,-1.27247 -0.0298,-1.4104 -0.32508,-1.50412 -0.59371,-0.18843 -0.78606,0.17814 -0.78606,1.49809 0,1.4267 0.19077,1.76014 0.86006,1.50331 z m 0.21745,-7.49207 c -0.0437,-1.31867 -0.0626,-1.38249 -0.42462,-1.43367 -0.5348,-0.0756 -0.64769,0.20092 -0.65046,1.59335 -0.002,0.99373 0.0488,1.25095 0.27126,1.37547 0.17607,0.0985 0.37639,0.0982 0.56162,-9.4e-4 0.25008,-0.13384 0.28192,-0.33556 0.2422,-1.53421 z m -0.0457,-5.82468 v -1.42862 h -0.47621 -0.4762 l -0.0468,1.25585 c -0.0577,1.54609 2.4e-4,1.71629 0.5618,1.6517 l 0.43743,-0.0503 z m 0.0455,-5.80924 c 0.051,-1.52813 -0.13005,-1.90898 -0.74967,-1.57737 -0.28782,0.15404 -0.32762,0.32507 -0.32762,1.40788 0,1.3091 0.15796,1.65939 0.71245,1.57992 0.28744,-0.0412 0.32387,-0.18203 0.36484,-1.41043 z m -0.21723,-4.52552 c 0.20271,-0.0778 0.25108,-0.36624 0.25108,-1.49728 0,-1.27247 -0.0298,-1.4104 -0.32508,-1.50412 -0.59371,-0.18843 -0.78606,0.17814 -0.78606,1.49809 0,1.4267 0.19077,1.76014 0.86006,1.50331 z m 0.17172,-7.44356 c 0,-1.38502 -0.0116,-1.43025 -0.37889,-1.48218 -0.20839,-0.0295 -0.43944,0.042 -0.51346,0.15873 -0.16311,0.25733 -0.18542,2.5738 -0.0263,2.7329 0.0622,0.0622 0.29436,0.092 0.51589,0.0661 0.3979,-0.0464 0.40278,-0.0643 0.40278,-1.47559 z m 0,-5.87319 v -1.42861 h -0.47621 -0.4762 l -0.0468,1.25584 c -0.0577,1.54609 2.4e-4,1.71629 0.5618,1.6517 l 0.43743,-0.0503 z m 0.0455,-5.80924 c 0.051,-1.52812 -0.13005,-1.90898 -0.74967,-1.57737 -0.28782,0.15404 -0.32762,0.32507 -0.32762,1.40789 0,1.30909 0.15796,1.65938 0.71245,1.57991 0.28744,-0.0412 0.32387,-0.18203 0.36484,-1.41043 z m -0.15663,-4.61965 c 0.1173,-0.1173 0.19048,-0.69253 0.19048,-1.49728 0,-1.1776 -0.0321,-1.31701 -0.32508,-1.40998 -0.59371,-0.188442 -0.78606,0.17813 -0.78606,1.49808 0,1.17617 0.14708,1.59966 0.55557,1.59966 0.096,0 0.26033,-0.0857 0.36509,-0.19048 z M 103.019,95.558334 V 94.12983 h -0.47621 -0.4762 l -0.0468,1.255849 c -0.0577,1.546086 2.4e-4,1.716287 0.5618,1.651694 l 0.43743,-0.05031 z m 0,-5.873193 v -1.428615 h -0.47621 -0.4762 l -0.0468,1.255849 c -0.0577,1.546087 2.4e-4,1.716287 0.5618,1.651695 l 0.43743,-0.05031 z m 0,-5.855894 c 0,-1.144486 -0.05,-1.442856 -0.26448,-1.578144 -0.52495,-0.331127 -0.7673,0.132911 -0.7673,1.469166 0,1.29482 0.15945,1.645318 0.71245,1.56606 0.29257,-0.04193 0.31933,-0.164026 0.31933,-1.457082 z m -0.11112,-4.572993 c 0.1173,-0.117302 0.19048,-0.692529 0.19048,-1.497285 0,-1.1776 -0.0321,-1.317005 -0.32508,-1.409982 -0.59371,-0.188437 -0.78606,0.17814 -0.78606,1.498089 0,1.176162 0.14708,1.59966 0.55557,1.59966 0.096,0 0.26033,-0.08572 0.36509,-0.190482 z"
     id="path9"
     transform="scale(6.1480253)" /><path
     style="opacity:0.433;fill:#deab28;fill-opacity:0.643137;stroke:none;stroke-width:0.239977;stroke-miterlimit:10;stroke-opacity:0.0156863"
     d="m 162.30649,175.17232 v -13.96038 l 0.81701,-0.048 c 1.51816,-0.0891 1.51816,-1.11795 0,-1.2071 l -0.81701,-0.048 v -43.8424 -43.842441 l 28.96913,-14.484303 28.96913,-14.484305 v 58.493689 58.49369 l -28.88959,14.44496 c -15.88927,7.94474 -28.92538,14.44497 -28.96912,14.44497 -0.0438,0 -0.0796,-6.28217 -0.0796,-13.96038 z m 7.52693,-14.07332 c 0.33112,-0.12706 0.33112,-0.95012 0,-1.07718 -0.40949,-0.15714 -2.12592,-0.10967 -2.45784,0.068 -0.34604,0.18519 -0.40257,0.62906 -0.11656,0.91508 0.19774,0.19773 2.12115,0.26806 2.5744,0.0941 z m 5.97598,-0.068 c 0.37182,-0.19899 0.39343,-0.52028 0.0576,-0.85612 -0.29154,-0.29154 -2.12136,-0.35103 -2.61822,-0.0851 -0.38262,0.20478 -0.39872,0.71891 -0.0293,0.93411 0.36445,0.21227 2.19715,0.21731 2.58988,0.007 z m 5.87319,0 c 0.39502,-0.21141 0.39502,-0.72983 0,-0.94124 -0.49685,-0.26591 -2.32668,-0.20642 -2.61822,0.0851 -0.13719,0.13719 -0.24944,0.31067 -0.24944,0.3855 0,0.0748 0.11225,0.24831 0.24944,0.3855 0.29154,0.29154 2.12137,0.35103 2.61822,0.0851 z m 6.08337,-0.19283 c 0.33444,-0.53208 -0.0633,-0.82808 -1.18462,-0.88152 -1.4377,-0.0685 -1.73448,0.033 -1.73448,0.59353 0,0.58158 0.13571,0.63309 1.57066,0.59606 0.92365,-0.0238 1.21105,-0.0895 1.34844,-0.30807 z m 5.71897,0.2608 c 0.14582,-0.056 0.25109,-0.28176 0.25109,-0.53859 0,-0.25683 -0.10527,-0.48263 -0.25109,-0.53859 -0.40949,-0.15714 -2.12592,-0.10967 -2.45784,0.068 -0.34604,0.18519 -0.40257,0.62906 -0.11656,0.91508 0.19774,0.19773 2.12115,0.26806 2.5744,0.0941 z m 5.97598,-0.068 c 0.16887,-0.0904 0.30703,-0.30215 0.30703,-0.47062 0,-0.44301 -0.47981,-0.63494 -1.58735,-0.63494 -0.5353,0 -1.11144,0.0739 -1.28031,0.16432 -0.38263,0.20478 -0.39873,0.71891 -0.0293,0.93411 0.36445,0.21227 2.19715,0.21731 2.58988,0.007 z m 5.87319,0 c 0.16887,-0.0904 0.30704,-0.30215 0.30704,-0.47062 0,-0.44865 -0.48264,-0.63494 -1.64495,-0.63494 -0.98486,0 -1.52975,0.22616 -1.52975,0.63494 0,0.0748 0.11225,0.24831 0.24944,0.3855 0.29154,0.29154 2.12136,0.35103 2.61822,0.0851 z m 6.08337,-0.19283 c 0.12696,-0.20199 0.12697,-0.35359 5e-5,-0.55558 -0.13483,-0.21457 -0.436,-0.28846 -1.32343,-0.32472 -1.25203,-0.0512 -1.59572,0.0971 -1.59572,0.68809 0,0.47961 0.17773,0.53622 1.57066,0.50028 0.92365,-0.0238 1.21105,-0.0895 1.34844,-0.30807 z m 5.87935,0.10771 c 0.13719,-0.13719 0.24944,-0.31067 0.24944,-0.3855 0,-0.0748 -0.11225,-0.24831 -0.24944,-0.3855 -0.29154,-0.29154 -2.12137,-0.35103 -2.61823,-0.0851 -0.34603,0.18519 -0.40257,0.62906 -0.11655,0.91508 0.29556,0.29556 2.42619,0.24962 2.73478,-0.059 z"
     id="path10"
     transform="scale(6.1480253)" /><path
     style="opacity:0.283;fill:#deab28;fill-opacity:0.643137;stroke:none;stroke-width:0.239977;stroke-miterlimit:10;stroke-opacity:0.0156863"
     d="M 73.891123,57.312948 C 99.236654,44.628876 101.91908,43.32162 102.02572,43.60181 c 0.0853,0.224188 0.23875,0.295817 0.55557,0.259379 0.36503,-0.04198 0.44595,-0.135984 0.48744,-0.566229 l 0.0497,-0.515889 57.65042,0.0088 57.65041,0.0088 -28.49292,14.268587 -28.49293,14.268587 -29.157,0.0088 -29.15701,0.0088 -0.0502,-0.436521 c -0.0423,-0.368038 -0.12493,-0.436521 -0.52643,-0.436521 -0.40149,0 -0.48408,0.06848 -0.52643,0.436521 l -0.0502,0.436521 -28.045857,-0.0088 -28.04586,-0.0088 z m 29.127867,8.720794 v -1.428614 h -0.47621 -0.4762 l -0.0468,1.255849 c -0.0577,1.546086 2.4e-4,1.716287 0.5618,1.651694 l 0.43743,-0.05031 z m 0,-5.855893 c 0,-1.144487 -0.05,-1.442856 -0.26448,-1.578144 -0.52495,-0.331128 -0.7673,0.13291 -0.7673,1.469165 0,1.29482 0.15945,1.645318 0.71245,1.56606 0.29257,-0.04193 0.31933,-0.164026 0.31933,-1.457081 z m -0.11112,-4.572993 c 0.11767,-0.117669 0.19048,-0.696014 0.19048,-1.512964 0,-1.077944 -0.048,-1.340908 -0.25967,-1.42213 -0.55691,-0.213707 -0.76988,0.16369 -0.81873,1.450906 -0.046,1.211262 0.0953,1.67467 0.51052,1.67467 0.10281,0 0.27264,-0.08572 0.3774,-0.190482 z m 0.11112,-7.349429 v -1.428615 h -0.47621 -0.4762 l -0.0468,1.255849 c -0.0577,1.546086 2.4e-4,1.716288 0.5618,1.651695 l 0.43743,-0.05031 z"
     id="path11"
     transform="scale(6.1480253)" /></svg>
